<?xml version="1.0" encoding="UTF-8"?><svg xmlns="http://www.w3.org/2000/svg" viewBox="0 0 718.48 248.21"><defs><style>.d{fill:#fff;}</style></defs><g id="a"/><g id="b"><g id="c"><g><path class="d" d="M226.41,184.08V4.52h3.91l119.51,137.65V4.52h17.7V184.08h-4.03L244.96,48.11V184.08h-18.55Z"/><path class="d" d="M398.02,21.85V4.52h94.73l-75.02,161.99h71.23v17.58h-99L465.63,21.85h-67.61Z"/><path class="d" d="M500.16,150.63l15.26-9.16c10.74,19.78,23.15,29.66,37.23,29.66,6.02,0,11.68-1.4,16.97-4.21,5.29-2.81,9.32-6.57,12.08-11.29,2.77-4.72,4.15-9.72,4.15-15.01,0-6.02-2.04-11.92-6.1-17.7-5.62-7.97-15.87-17.58-30.76-28.81-14.97-11.31-24.29-19.49-27.95-24.54-6.35-8.46-9.52-17.62-9.52-27.47,0-7.81,1.87-14.93,5.62-21.36,3.74-6.43,9.01-11.49,15.81-15.2,6.79-3.7,14.18-5.55,22.16-5.55,8.46,0,16.38,2.1,23.74,6.29,7.36,4.19,15.16,11.9,23.38,23.13l-14.65,11.11c-6.76-8.95-12.51-14.85-17.27-17.7-4.76-2.85-9.95-4.27-15.56-4.27-7.24,0-13.16,2.2-17.76,6.59s-6.9,9.81-6.9,16.24c0,3.91,.81,7.69,2.44,11.35,1.63,3.66,4.6,7.65,8.91,11.96,2.36,2.28,10.09,8.26,23.19,17.94,15.54,11.47,26.2,21.69,31.98,30.64,5.78,8.95,8.67,17.94,8.67,26.98,0,13.02-4.94,24.33-14.83,33.94-9.89,9.6-21.91,14.4-36.07,14.4-10.91,0-20.79-2.91-29.66-8.73-8.87-5.82-17.05-15.56-24.54-29.24Z"/><path class="d" d="M619.16,22.09V4.52h98.39V22.09h-40.04V184.08h-18.31V22.09h-40.04Z"/></g><path class="d" d="M2.37,247.49v-28.73h.62l19.12,22.02v-22.02h2.83v28.73h-.64l-18.96-21.76v21.76H2.37Z"/><path class="d" d="M44.76,218.76h16.46v2.81h-13.59v9h13.48v2.81h-13.48v11.29h13.48v2.81h-16.35v-28.73Z"/><path class="d" d="M76.13,221.57v-2.81h15.74v2.81h-6.41v25.92h-2.93v-25.92h-6.41Z"/><path class="d" d="M131.58,221.53v-2.77h15.16l-12,25.92h11.4v2.81h-15.84l12.11-25.96h-10.82Z"/><path class="d" d="M164.71,218.76h16.46v2.81h-13.59v9h13.48v2.81h-13.48v11.29h13.48v2.81h-16.35v-28.73Z"/><path class="d" d="M199.09,218.76h5.72c3.19,0,5.35,.13,6.48,.39,1.71,.39,3.09,1.23,4.16,2.51,1.07,1.28,1.6,2.87,1.6,4.74,0,1.56-.37,2.94-1.1,4.13-.74,1.19-1.79,2.08-3.15,2.69s-3.26,.92-5.66,.93l10.33,13.34h-3.55l-10.33-13.34h-1.62v13.34h-2.87v-28.73Zm2.87,2.81v9.77l4.95,.04c1.92,0,3.34-.18,4.25-.55,.92-.36,1.64-.95,2.15-1.75,.51-.8,.77-1.7,.77-2.69s-.26-1.84-.78-2.63c-.52-.79-1.21-1.35-2.05-1.69-.85-.34-2.26-.51-4.23-.51h-5.07Z"/><path class="d" d="M304.48,242.14l2.44-1.46c1.72,3.16,3.7,4.75,5.96,4.75,.96,0,1.87-.22,2.71-.67,.85-.45,1.49-1.05,1.93-1.81,.44-.75,.66-1.56,.66-2.4,0-.96-.33-1.91-.98-2.83-.9-1.28-2.54-2.81-4.92-4.61-2.4-1.81-3.89-3.12-4.47-3.93-1.02-1.35-1.52-2.82-1.52-4.39,0-1.25,.3-2.39,.9-3.42,.6-1.03,1.44-1.84,2.53-2.43,1.09-.59,2.27-.89,3.54-.89,1.35,0,2.62,.33,3.8,1.01,1.18,.67,2.42,1.9,3.74,3.7l-2.34,1.78c-1.08-1.43-2-2.38-2.76-2.83s-1.59-.68-2.49-.68c-1.16,0-2.11,.35-2.84,1.05-.74,.7-1.1,1.57-1.1,2.6,0,.62,.13,1.23,.39,1.82,.26,.59,.74,1.22,1.43,1.91,.38,.36,1.61,1.32,3.71,2.87,2.49,1.84,4.19,3.47,5.12,4.9,.92,1.43,1.39,2.87,1.39,4.32,0,2.08-.79,3.89-2.37,5.43s-3.51,2.3-5.77,2.3c-1.75,0-3.33-.47-4.75-1.4-1.42-.93-2.73-2.49-3.93-4.68Z"/><path class="d" d="M337.91,218.76h3.3l7.35,11.85,7.24-11.85h3.32l-9.1,15v13.73h-2.83v-13.73l-9.28-15Z"/><path class="d" d="M373.68,242.14l2.44-1.46c1.72,3.16,3.7,4.75,5.96,4.75,.96,0,1.87-.22,2.71-.67s1.49-1.05,1.93-1.81,.66-1.56,.66-2.4c0-.96-.33-1.91-.98-2.83-.9-1.28-2.54-2.81-4.92-4.61-2.4-1.81-3.89-3.12-4.47-3.93-1.02-1.35-1.52-2.82-1.52-4.39,0-1.25,.3-2.39,.9-3.42s1.44-1.84,2.53-2.43,2.27-.89,3.54-.89c1.35,0,2.62,.33,3.8,1.01,1.18,.67,2.42,1.9,3.74,3.7l-2.34,1.78c-1.08-1.43-2-2.38-2.76-2.83s-1.59-.68-2.49-.68c-1.16,0-2.11,.35-2.84,1.05s-1.1,1.57-1.1,2.6c0,.62,.13,1.23,.39,1.82s.74,1.22,1.43,1.91c.38,.36,1.61,1.32,3.71,2.87,2.49,1.84,4.19,3.47,5.12,4.9s1.39,2.87,1.39,4.32c0,2.08-.79,3.89-2.37,5.43s-3.51,2.3-5.77,2.3c-1.75,0-3.33-.47-4.75-1.4s-2.73-2.49-3.93-4.68Z"/><path class="d" d="M406.51,221.57v-2.81h15.74v2.81h-6.41v25.92h-2.93v-25.92h-6.41Z"/><path class="d" d="M439.22,218.76h16.46v2.81h-13.59v9h13.48v2.81h-13.48v11.29h13.48v2.81h-16.35v-28.73Z"/><path class="d" d="M472.13,247.49l4.11-28.73h.47l11.68,23.57,11.57-23.57h.46l4.13,28.73h-2.82l-2.84-20.55-10.16,20.55h-.73l-10.28-20.7-2.82,20.7h-2.77Z"/><path class="d" d="M520.03,242.14l2.44-1.46c1.72,3.16,3.7,4.75,5.96,4.75,.96,0,1.87-.22,2.71-.67s1.49-1.05,1.93-1.81,.66-1.56,.66-2.4c0-.96-.33-1.91-.98-2.83-.9-1.28-2.54-2.81-4.92-4.61-2.4-1.81-3.89-3.12-4.47-3.93-1.02-1.35-1.52-2.82-1.52-4.39,0-1.25,.3-2.39,.9-3.42s1.44-1.84,2.53-2.43,2.27-.89,3.54-.89c1.35,0,2.62,.33,3.8,1.01s2.42,1.9,3.74,3.7l-2.34,1.78c-1.08-1.43-2-2.38-2.76-2.83s-1.59-.68-2.49-.68c-1.16,0-2.11,.35-2.84,1.05s-1.1,1.57-1.1,2.6c0,.62,.13,1.23,.39,1.82s.74,1.22,1.43,1.91c.38,.36,1.61,1.32,3.71,2.87,2.49,1.84,4.19,3.47,5.12,4.9s1.39,2.87,1.39,4.32c0,2.08-.79,3.89-2.37,5.43s-3.51,2.3-5.77,2.3c-1.75,0-3.33-.47-4.75-1.4s-2.73-2.49-3.93-4.68Z"/><path class="d" d="M576.74,221.57v-2.81h15.74v2.81h-6.41v25.92h-2.93v-25.92h-6.41Z"/><path class="d" d="M623.11,218.04c4.35,0,7.99,1.45,10.92,4.36s4.4,6.48,4.4,10.72-1.46,7.77-4.39,10.7-6.49,4.39-10.7,4.39-7.86-1.46-10.79-4.38-4.4-6.45-4.4-10.59c0-2.76,.67-5.32,2-7.68,1.34-2.36,3.16-4.2,5.46-5.54,2.31-1.33,4.8-2,7.49-2Zm.13,2.79c-2.13,0-4.14,.55-6.04,1.66-1.9,1.11-3.39,2.6-4.46,4.48-1.07,1.88-1.6,3.97-1.6,6.27,0,3.41,1.18,6.3,3.55,8.65,2.37,2.35,5.22,3.53,8.56,3.53,2.23,0,4.29-.54,6.19-1.62,1.9-1.08,3.38-2.56,4.44-4.44,1.06-1.88,1.59-3.96,1.59-6.25s-.53-4.34-1.59-6.19c-1.06-1.84-2.56-3.32-4.49-4.43-1.93-1.11-3.98-1.66-6.14-1.66Z"/><path class="d" d="M670.68,218.04c4.35,0,7.99,1.45,10.92,4.36s4.4,6.48,4.4,10.72-1.46,7.77-4.39,10.7-6.49,4.39-10.7,4.39-7.86-1.46-10.79-4.38-4.4-6.45-4.4-10.59c0-2.76,.67-5.32,2-7.68,1.34-2.36,3.16-4.2,5.46-5.54,2.31-1.33,4.8-2,7.49-2Zm.13,2.79c-2.13,0-4.14,.55-6.04,1.66-1.9,1.11-3.39,2.6-4.46,4.48-1.07,1.88-1.6,3.97-1.6,6.27,0,3.41,1.18,6.3,3.55,8.65,2.37,2.35,5.22,3.53,8.56,3.53,2.23,0,4.29-.54,6.19-1.62,1.9-1.08,3.38-2.56,4.44-4.44,1.06-1.88,1.59-3.96,1.59-6.25s-.53-4.34-1.59-6.19c-1.06-1.84-2.56-3.32-4.49-4.43-1.93-1.11-3.98-1.66-6.14-1.66Z"/><path class="d" d="M704.56,218.76h2.87v25.96h11.05v2.77h-13.93v-28.73Z"/><path class="d" d="M249.72,216.05c-5.05,0-9.52,2.46-12.31,6.23l-116.7-69.09c1.29-2.83,2.01-5.96,2.01-9.27,0-5.13-1.73-9.85-4.63-13.62l17.17-14.33c2.63,2.76,6.32,4.49,10.43,4.49,7.96,0,14.41-6.45,14.41-14.41s-6.45-14.41-14.41-14.41c-.04,0-.08,0-.12,0l-4.75-54.43c4.2-1.03,7.32-4.81,7.32-9.33,0-5.31-4.31-9.62-9.62-9.62-4.22,0-7.79,2.72-9.09,6.49l-52.78-8.27c.01-.24,.04-.47,.04-.71,0-8.54-6.92-15.46-15.46-15.46s-15.46,6.92-15.46,15.46c0,3.14,.94,6.06,2.55,8.5l-30.21,25.23c-1.66-1.37-3.79-2.19-6.11-2.19-5.31,0-9.62,4.31-9.62,9.62s4.31,9.62,9.62,9.62c2.27,0,4.36-.79,6.01-2.11l30.9,20.75c-1.32,2.18-2.09,4.72-2.09,7.45,0,.16,.02,.32,.02,.48l-16.96,1.75c-1.12-4.07-4.84-7.05-9.26-7.05-5.31,0-9.62,4.31-9.62,9.62s4.31,9.62,9.62,9.62,9.36-4.07,9.6-9.17l17.04-1.76c.44,1.76,1.19,3.39,2.21,4.83L14.55,143.39c-1.44-.86-3.12-1.37-4.92-1.37-5.31,0-9.62,4.31-9.62,9.62s4.31,9.62,9.62,9.62,9.62-4.31,9.62-9.62c0-2.42-.9-4.62-2.37-6.31l34.62-42.11c2.57,2.36,5.98,3.81,9.73,3.81,2.66,0,5.14-.73,7.28-1.99l17.01,22.1c-4.64,4.1-7.57,10.09-7.57,16.77,0,8.11,4.31,15.22,10.77,19.14l-7.83,15.42c-.93-.3-1.92-.46-2.94-.46-5.31,0-9.62,4.31-9.62,9.62s4.31,9.62,9.62,9.62,9.62-4.31,9.62-9.62c0-3.2-1.57-6.03-3.98-7.78l7.83-15.41c2.73,1.19,5.75,1.85,8.92,1.85,7.97,0,14.97-4.17,18.93-10.45l116.59,69.03c-.93,1.97-1.46,4.17-1.46,6.49,0,8.46,6.86,15.33,15.33,15.33s15.33-6.86,15.33-15.33-6.86-15.33-15.33-15.33ZM50.74,82.75l-30.68-20.61c.98-1.51,1.56-3.3,1.56-5.24s-.56-3.66-1.5-5.15l30.12-25.15c2.8,2.84,6.69,4.6,11,4.6,7.26,0,13.33-5.01,14.99-11.75l52.68,8.26s0,.09,0,.14c0,1.67,.43,3.25,1.18,4.62l-59.21,49.44c-2.56-2.3-5.93-3.72-9.64-3.72-4.14,0-7.86,1.75-10.49,4.54Zm37.17,42.55l-16.97-22.05c2.88-2.64,4.69-6.41,4.69-10.62,0-3.16-1.03-6.07-2.75-8.44l59.05-49.31c1.56,1.46,3.6,2.41,5.86,2.57l4.76,54.53c-6.45,1.43-11.28,7.18-11.28,14.06,0,2.76,.79,5.33,2.13,7.52l-17.32,14.46c-4.05-4.01-9.61-6.49-15.76-6.49-4.6,0-8.87,1.39-12.42,3.76Z"/></g></g></svg>